<?xml version="1.0" encoding="utf-8"?>
<!-- Generator: Adobe Illustrator 16.0.3, SVG Export Plug-In . SVG Version: 6.00 Build 0)  -->
<!DOCTYPE svg PUBLIC "-//W3C//DTD SVG 1.1//EN" "http://www.w3.org/Graphics/SVG/1.1/DTD/svg11.dtd">
<svg version="1.1" xmlns="http://www.w3.org/2000/svg" xmlns:xlink="http://www.w3.org/1999/xlink" x="0px" y="0px"
	 width="1245.263px" height="563.157px" viewBox="0 0 1245.263 563.157" enable-background="new 0 0 1245.263 563.157"
	 xml:space="preserve">
<g id="Capa_2">
	<rect width="1245.263" height="563.157"/>
</g>
<g id="Capa_9">
</g>
<g id="Capa_1">
</g>
<g id="Capa_3">
</g>
<g id="Capa_5">
</g>
<g id="Capa_5_copia">
</g>
<g id="Capa_7">
</g>
<g id="Capa_7_copia">
</g>
<g id="Capa_11">
	<path fill="#FFFFFF" d="M598.896,340.182c0,0-3.54,4.58-4.581,10.618c0,0-1.041,4.997,10.827,15.199c0,0,4.789,2.499,12.076,0
		c0,0,5.622-5.413,10.202-13.325c0,0,2.082-1.249-3.332-12.492c0,0,0,3.189-2.29,3.989c-2.291,0.799-20.821,1.49-21.446,0
		C599.729,342.68,598.896,340.182,598.896,340.182z"/>
</g>
<g id="Capa_11_copia">
</g>
<g id="Capa_12">
	<g>
		<g>
			<polygon stroke="#FFFFFF" stroke-miterlimit="10" points="722.016,419.901 718.282,407 709.109,397.188 722.148,400.406 
				735.231,397.366 725.925,407.052 			"/>
			<rect x="509.125" y="405.449" stroke="#FFFFFF" stroke-miterlimit="10" width="53.858" height="5.495"/>
			<rect x="515.17" y="391.709" stroke="#FFFFFF" stroke-miterlimit="10" width="43.417" height="5.799"/>
			<g>
				<path stroke="#FFFFFF" stroke-miterlimit="10" d="M509.42,415.328h7.012l17.064,37.086l0.169-0.17l-0.507-11.404v-25.512h5.66
					v44.013h-7.012l-17.064-37.085l-0.169,0.168l0.507,11.489v25.428h-5.66V415.328z"/>
				<path stroke="#FFFFFF" stroke-miterlimit="10" d="M545.066,454.272h6.167v-33.875h-6.167v-5.069h18.078v5.069h-6.251v33.875
					h6.251v5.068h-18.078V454.272z"/>
				<path stroke="#FFFFFF" stroke-miterlimit="10" d="M569.393,402.995h7.096l16.726,47.391l0.169-0.169l-0.253-12.586v-34.636h5.66
					v56.346h-7.096l-16.727-47.476l-0.169,0.169l0.254,12.756v34.551h-5.66V402.995z"/>
				<path stroke="#FFFFFF" stroke-miterlimit="10" d="M610.868,447.345l-4.139,13.094l-5.575-2.026l13.854-43.084h7.265
					l13.853,43.084l-5.574,2.026l-4.055-13.094H610.868z M618.64,421.917l-6.251,20.359h12.502L618.64,421.917z"/>
				<path stroke="#FFFFFF" stroke-miterlimit="10" d="M638.489,415.328h7.012l17.064,37.086l0.169-0.17l-0.508-11.404v-25.512h5.661
					v44.013h-7.012l-17.064-37.085l-0.17,0.168l0.508,11.489v25.428h-5.66V415.328z"/>
				<path stroke="#FFFFFF" stroke-miterlimit="10" d="M672.7,459.341v-5.068h4.562v-33.875H672.7v-5.069h13.854
					c11.151,0,15.966,4.225,15.966,11.742c0,3.802-1.605,7.181-4.983,9.039c4.814,1.521,7.518,5.659,7.518,10.644
					c0,7.941-5.237,12.588-14.445,12.588H672.7z M689.256,434.167c4.9,0,7.35-3.126,7.35-7.097c0-5.237-3.718-6.673-7.688-6.673
					h-5.998v13.77H689.256z M689.509,454.272c4.984,0,9.63-1.099,9.63-7.097c0-4.393-2.871-7.941-8.277-7.941h-7.941v15.038H689.509
					z"/>
				<path stroke="#FFFFFF" stroke-miterlimit="10" d="M714.174,415.328v29.989c0,6.42,1.857,9.461,7.687,9.461
					c7.096,0,8.617-3.125,8.617-9.461v-29.989h5.66v32.693c0,5.828-4.14,12.08-13.854,12.08c-9.546,0-13.77-5.998-13.77-12.419
					v-32.354H714.174z"/>
			</g>
		</g>
		<g>
			<g>
				<ellipse stroke="#FFFFFF" stroke-width="7" stroke-miterlimit="10" cx="622.632" cy="245.875" rx="143.601" ry="143.157"/>
				<g>
					<path stroke="#FFFFFF" stroke-width="2" stroke-miterlimit="10" d="M644.768,369.337c7.332-11.02,16.282-26.428,16.282-26.428
						c29.704-33.534,27.935-74.64,27.935-74.64s46.619-29.596,0-129.494c0,0-16.581-22.897-50.533,78.96l-5.582,7.556v-3.948
						v-12.636c0,0-11.844,14.215-13.423,9.478c-1.579-4.738,6.316-28.426,6.316-28.426l-18.95,28.426
						c-33.952-101.857-50.534-78.96-50.534-78.96c-46.62,99.897,0,129.493,0,129.493s-1.77,41.106,27.935,74.642
						c0,0,5.209,8.168,16.282,26.427C607.444,380.92,635.198,381.295,644.768,369.337z"/>
				</g>
				<g>
					<g>
						<path fill="#FFFFFF" d="M592.784,291.604c4.371,7.249,3.822,15.591-1.226,18.635s-12.684-0.362-17.054-7.612
							c-3.508-5.817-3.847-12.34-1.234-16.262c0.643-0.965,1.463-1.772,2.459-2.373
							C580.777,280.947,588.413,284.355,592.784,291.604z"/>
						<path fill="#FFFFFF" d="M567.223,290.547c0,0,1.693,0.664,6.047-4.183c1.375-1.578,1.068,3.97,4.353,4.214"/>
					</g>
					<g>
						<path fill="#FFFFFF" d="M651.747,291.604c-4.371,7.249-3.822,15.591,1.226,18.635s12.684-0.362,17.054-7.612
							c3.509-5.817,3.848-12.34,1.234-16.262c-0.643-0.965-1.464-1.772-2.459-2.373
							C663.753,280.947,656.118,284.355,651.747,291.604z"/>
						<path fill="#FFFFFF" d="M677.306,290.547c0,0-1.692,0.664-6.046-4.183c-1.375-1.578-1.068,3.97-4.353,4.214"/>
					</g>
				</g>
				
					<ellipse transform="matrix(0.9342 0.3567 -0.3567 0.9342 139.0876 -194.0486)" fill="#FFFFFF" cx="595.734" cy="280.132" rx="8.447" ry="5.49"/>
				<path fill="#FFFFFF" d="M612.363,348.285c0,0-2.99,3.869-3.87,8.97c0,0-0.879,4.221,9.146,12.839c0,0,4.045,2.111,10.202,0
					c0,0,4.748-4.572,8.617-11.256c0,0,1.759-1.055-2.813-10.553c0,0,0,2.694-1.936,3.37c-1.935,0.675-17.587,1.259-18.115,0
					C613.066,350.396,612.363,348.285,612.363,348.285z"/>
				
					<ellipse transform="matrix(-0.9342 0.3566 -0.3566 -0.9342 1354.8342 310.4603)" fill="#FFFFFF" cx="648.796" cy="280.132" rx="8.448" ry="5.49"/>
			</g>
			<ellipse cx="614.507" cy="355.758" rx="3.449" ry="1.548"/>
		</g>
	</g>
</g>
</svg>
